<svg xmlns="http://www.w3.org/2000/svg" width="64" height="64" viewBox="0 0 64 64" role="img" aria-labelledby="title">
  <title>Middleman</title>
  <defs>
    <linearGradient id="g" x1="0%" y1="0%" x2="100%" y2="100%">
      <stop offset="0%" stop-color="#0ea5e9"/>
      <stop offset="100%" stop-color="#3b82f6"/>
    </linearGradient>
    <filter id="s" x="-20%" y="-20%" width="140%" height="140%">
      <feDropShadow dx="0" dy="4" stdDeviation="4" flood-color="#1e3a8a" flood-opacity="0.18"/>
    </filter>
  </defs>
  <rect x="6" y="6" width="52" height="52" rx="14" fill="url(#g)" filter="url(#s)"/>
  <path fill="#fff" d="M32 16.8c-.5 0-1 .16-1.42.47l-14 10.3a2.2 2.2 0 0 0-.9 1.77c0 1.21.99 2.2 2.2 2.2H19v11.1c0 1.77 1.43 3.2 3.2 3.2h6.1V37.8h7.4v8.98h6.1c1.77 0 3.2-1.43 3.2-3.2V31.54h1.12c1.22 0 2.2-.99 2.2-2.2 0-.69-.32-1.34-.86-1.77l-14-10.3c-.42-.31-.92-.47-1.46-.47Z"/>
</svg>
